<svg id="Layer_5" data-name="Layer 5" xmlns="http://www.w3.org/2000/svg" viewBox="0 0 1916.84 381.42"><defs><style>.cls-1{fill:#e5e5e5;}</style></defs><path class="cls-1" d="M371.09,700.43s-36.9,2.18-37.1-42.16c-.21-45.64-9.53-288.06-9.53-288.06s-6.8-40.26,24.13-43.92,50.18-5.09,50.18-5.09,31.35-3.63,31.35,25.67c0,31.42,5.06,240.42,5.06,240.42s1.15,5.2,5.64,5.2,129.29-1.69,129.29-1.69,37.12-3.48,38.8,15.94,8.43,93.69-13.5,93.69Z" transform="translate(-1.16 -320.82)"/><path class="cls-1" d="M1125,321s-101.2,0-128.18,1.68-23.72,22.86-23.72,22.86S980,660,981.22,680.23s23.18,20.2,23.18,20.2h114.54s137.62,5.06,137.62-172V486.23C1256.56,321,1125,321,1125,321Zm-25.73,291.78c-2.94-.05-28.39,2.58-30-17.26-1.63-20-1.62-23.2-6.68-163.21,0,0,1.29-21.52,20.89-21.49,45.09.06,90.63,16.92,90.43,99.08C1173.7,601.42,1126.9,613.22,1099.28,612.73Z" transform="translate(-1.16 -320.82)"/><path class="cls-1" d="M671.31,428.89s-25.75.56-28.9-21.64-11.58-77.87,10.35-79.56,145.91-6.76,162.34-6.75h79.24c1.29,0,29.12-1.51,29.54,18.64s10.49,86.66-21.54,87.69c-50.56,1.62-65.74-3.44-65.74,7.83V580.25s-1.49,14.42,7.71,13.93c5.77-.31,56.38-1.69,58.07-1.69s20.44-2.88,21.85,17c1.56,21.76,1.76,64,1.76,64s6.74,27-35.42,27c-67,0-222.63,1.69-222.63,1.69s-24.58,3.27-25.78-24.51-1.58-45.16-1.58-45.16-7-37.55,16.91-37.91,64.42,1.32,66.1,1.32c5.06,0,6.75-1.68,7.54-9.07.48-4.48-.43-152.48-.43-152.48s-1.81-5.88-7.11-5.42C716.63,429.5,671.31,428.89,671.31,428.89Z" transform="translate(-1.16 -320.82)"/><path class="cls-1" d="M1329.09,700.43s-25.15-.41-25.3-15.18S1294,402.34,1294,402.34l-1.2-37.83s-5.81-25.86,24.51-28,116.54-6.67,186-10.28c39.89-2.08,61.7,2.59,70.5,7,3.37,1.69,12.27,6.8,13.29,16.27,1.89,17.47,6.46,67.15-12.79,69.05s-150.89,8-155,8.57c-15.8,2.25-20.86,12.37-19.17,25.86s3.09,22.76,17.47,21.26,59.91-3.2,59.91-3.2h16.87s18.55-3.37,19.81,16.06c1.36,21-1.26,36.88-3,41.61s-4,14.35-33.19,18a535,535,0,0,1-57.88,3.63s-14.89,2.17-14.93,15.64c0,16.89-3.43,38.82,16.81,38.82,13.1,0,79.61-4.92,79.61-4.92l53.39-2.18s11.89-.24,20.28,3.23c5.26,2.18,12.21,3.6,12.85,17s-2.73,67.35-4.41,70.73-1.26,11.8-18.34,11.8Z" transform="translate(-1.16 -320.82)"/><path class="cls-1" d="M1880.81,530.58c-3.33-3.1-9.11-7-5.86-10.2a148.89,148.89,0,0,0,12.41-13.91c15.18-18.55,21.92-47.22,21.92-62.19s-1.48-30.08-8.43-52.5c-7.59-24.5-27.58-52-54-59-23.41-6.25-79.67-5.16-79.67-5.16s-98.5,3.87-117.66,5.16-19,22-19,22,7.41,296.55,7.41,324.29c0,23.61,21.93,21.93,21.93,21.93l44.72-.5h14.11c15.18,0,15.38-16.37,15.38-16.37L1730.5,579s0-6.75,6.75-6.75c12.72-.13,39.24-1.46,42.16-1.68,15.38-1.2,27.19,3.86,35.62,24.1s8,52.05,8.24,65.29c.2,10.61,1.68,27,1.68,27s1.69,13.49,11.81,13.49h65.83A14.72,14.72,0,0,0,1917,689.35a28.32,28.32,0,0,0,.71-6.54c0-16.11.2-59.47.2-59.47s1.68-30.36-10.12-59C1907.8,564.31,1904.42,552.5,1880.81,530.58Zm-65-45.54c-11.3,10.12-19.37,11.81-74.44,13-15.95.35-17.56-13-17.56-13s-3.42-56-3.42-66.27c0-16.87,16.14-16.87,16.14-16.87l20.18-1.61s7.45-1.27,31.47-.07c37.27,1.85,40.18,29.16,40.35,47.22C1828.71,468.17,1824.57,477.19,1815.8,485Z" transform="translate(-1.16 -320.82)"/><path class="cls-1" d="M276.68,513.91c-1.52-25.5-15.64-39.15-39.82-40.82-.79,0-21.81-2-22.62-2-36.91-2.88-97.55-5.75-105.49-5.84-.42,0-.82,0-1.24.05-3.36.23-21.14.19-18.08-27.61,3.13-28.52,14-25.13,33.93-28.51,5.8-1,17-1.35,22.86-1.62,13-.59,39.55-1.75,39.35,12.94-.1,6.74,2.93,20.44,13.49,23.61,8.23,2.47,29.42,6.78,41.13,8.06,8,.86,13.11.8,19.16-1.59,2.31-.92,13.94-3,12.73-21.72-2.18-33.66-5.59-72.58-5.59-72.58s-4.83-34.8-66.93-35.29H74.76c-.32,0-.63,0-1,0-6.23-.35-76.14-2.83-72.51,59.55,3.57,61.33,6,113.67,6.28,119.79,0,.37,0,.73,0,1.1-.08,4.89.88,44.12,51.48,47.28,54,3.37,99.51,5.06,121.44,7.59s33.66,53.13-10.16,53.13-60.68,1.68-65.74-6.75,7.43-20.49-18.86-27.9c-26.68-7.52-58.73-9.2-58.73-9.2-.35-.08-24.35-.54-22.47,23.59,2,26,3,50.59,3.21,55.85a12.72,12.72,0,0,0,0,1.38c2.61,19.18-.48,52.52,79.35,54.1,80.63,1.6,134.12.17,139.38,0h.72c37.84-1.2,58.08-4.57,57.13-40.49Z" transform="translate(-1.16 -320.82)"/></svg>